{"title":"Saheb Biwi Aur Gangster Returns 2013 BRRip 480p x264 Hindi ESubs","uid":8576772,"size":532603189,"categoryP":"video","categoryS":"movies","magnet":"?xt=urn:btih:dfeb7d7f292b6f9f9937364025857efa07f3824e&amp;dn=Saheb+Biwi+Aur+Gangster+Returns+2013+BRRip+480p+x264+Hindi+ESubs&amp;tr=udp%3A%2F%2Ftracker.openbittorrent.com%3A80&amp;tr=udp%3A%2F%2Fopen.demonii.com%3A1337&amp;tr=udp%3A%2F%2Ftracker.coppersurfer.tk%3A6969&amp;tr=udp%3A%2F%2Fexodus.desync.com%3A6969","seeders":1,"leechers":1,"uploader":"ValidusVyto","files":-1,"time":1371297292,"description":"_______ Visit us at our Semi Public Bittorrent Community ________\n  &lt;a href=&quot;\nhttp://p2pdl.com&quot; rel=&quot;nofollow&quot; target=&quot;_NEW&quot;&gt;\nhttp://p2pdl.com&lt;/a&gt;  _____________________________ &lt;a href=&quot; http://p2pdl.com&quot; rel=&quot;nofollow&quot; target=&quot;_NEW&quot;&gt; http://p2pdl.com&lt;/a&gt;\n\n\nSaheb Biwi Aur Gangster Returns 2013 BRRip 480p x264 Hindi ESubs - ViZNU\n\n\nGenre: Action | Crime | Drama\nPlot: The Royal Scandal, the war for power and fight for money continues with the\nreturn of Saheb Biwi Aur Gangster.  \nDirector: Tigmanshu Dhulia\nStars: Raj Babbar, Mahie Gill, Mugdha Godse.\nRated: N/a\n\n\nInfo: &lt;a href=&quot;\nhttp://www.imdb.com/title/tt2362778/&quot; rel=&quot;nofollow&quot; target=&quot;_NEW&quot;&gt;\nhttp://www.imdb.com/title/tt2362778/&lt;/a&gt;\n\nTrailer:\n\n\nFormat                         : MPEG-4\nFile size                      : 501 MiB\nDuration                       : 2h 22mn\nOverall bit rate mode          : Variable\nOverall bit rate               : 492 Kbps\nSource                         : BluRay.720p.DDR\n\nVideo\nFormat                         : AVC\nBit rate                       : 449 Kbps\nWidth                          : 720 pixels\nHeight                         : 304 pixels\nDisplay aspect ratio           : 2.35:1\nFrame rate mode                : Constant\nFrame rate                     : 24.000 fps\nStream size                    : 457 MiB (91%)\nWriting library                : x264 core 130 r2273\n\nAudio\nFormat                         : AAC\nBit rate mode                  : Variable\nBit rate                       : 39.9 Kbps\nChannel(s)                     : 2 channels\nChannel positions              : Front: L R\nSampling rate                  : 48.0 KHz\nStream size                    : 40.7 MiB (8%)\nLanguage                       : Hindi\n\nSubtitle                       : Yes(English)\n\n &lt;a href=&quot;\nhttp://ultraimg.com/images/us4jy.png&quot; rel=&quot;nofollow&quot; target=&quot;_NEW&quot;&gt;\nhttp://ultraimg.com/images/us4jy.png&lt;/a&gt; &lt;a href=&quot;\nhttp://ultraimg.com/images/moKRa.png&quot; rel=&quot;nofollow&quot; target=&quot;_NEW&quot;&gt;\nhttp://ultraimg.com/images/moKRa.png&lt;/a&gt; &lt;a href=&quot;\nhttp://ultraimg.com/images/N49EF.png&quot; rel=&quot;nofollow&quot; target=&quot;_NEW&quot;&gt;\nhttp://ultraimg.com/images/N49EF.png&lt;/a&gt; &lt;a href=&quot;\nhttp://ultraimg.com/images/3vS4j.png&quot; rel=&quot;nofollow&quot; target=&quot;_NEW&quot;&gt;\nhttp://ultraimg.com/images/3vS4j.png&lt;/a&gt; &lt;a href=&quot;\nhttp://ultraimg.com/images/DgTV.png&quot; rel=&quot;nofollow&quot; target=&quot;_NEW&quot;&gt;\nhttp://ultraimg.com/images/DgTV.png&lt;/a&gt; &lt;a href=&quot;\nhttp://ultraimg.com/images/XjO51.png&quot; rel=&quot;nofollow&quot; target=&quot;_NEW&quot;&gt;\nhttp://ultraimg.com/images/XjO51.png&lt;/a&gt;\n\n\n----------------------------------------------------------------------------------------------------\n\n\nEncoded using revolutionary 10bit encoding, which enables us to provide you more crispier \nand sharper images at small sizes, just make sure you follow our instructions without a fault.\nRecommend to you to use latest version of VLC player. Install K-Lite Codec Pack or shark007 codecs\nin case of any kind of problem in playback (For non-VLC Media Player users). Alternatively, install\nCore AVC codecs, the fastest decoder that there is coupled with Community Center Codec Pack and play\non Windows Media Player Classic. Check sample to be sure.\nEnjoy!\n\nEncoder Notes:Looking For Early Access To Anything You Can Provide DVDScr, R5, DVDR, BluRay, Direct\nAudio, Music Releases and Seedboxes. We require dedicated servers, so as to do more \nand fast releases of movies.\nIf You Got anything to offer please contact us at &quot;&lt;a class=&quot;__cf_email__&quot; href=&quot;/cdn-cgi/l/email-protection&quot; data-cfemail=&quot;f1929e9f85909285b181c381959ddf929e9c&quot;&gt;[email&amp;#160;protected]&lt;/a&gt;&lt;script cf-hash='f9e31' type=&quot;text/javascript&quot;&gt;\n/* &lt;![CDATA[ */!function(){try{var t=&quot;currentScript&quot;in document?document.currentScript:function(){for(var t=document.getElementsByTagName(&quot;script&quot;),e=t.length;e--;)if(t[e].getAttribute(&quot;cf-hash&quot;))return t[e]}();if(t&amp;&amp;t.previousSibling){var e,r,n,i,c=t.previousSibling,a=c.getAttribute(&quot;data-cfemail&quot;);if(a){for(e=&quot;&quot;,r=parseInt(a.substr(0,2),16),n=2;a.length-n;n+=2)i=parseInt(a.substr(n,2),16)^r,e+=String.fromCharCode(i);e=document.createTextNode(e),c.parentNode.replaceChild(e,c)}}}catch(u){}}();/* ]]&gt; */&lt;/script&gt;&quot;.\n\nFace book Fan Page:   &lt;a href=&quot;\nhttp://fbl.me/BC&quot; rel=&quot;nofollow&quot; target=&quot;_NEW&quot;&gt;\nhttp://fbl.me/BC&lt;/a&gt;","torrent":{"xt":"urn:btih:dfeb7d7f292b6f9f9937364025857efa07f3824e","amp;dn":"Saheb+Biwi+Aur+Gangster+Returns+2013+BRRip+480p+x264+Hindi+ESubs","amp;tr":["udp%3A%2F%2Ftracker.openbittorrent.com%3A80","udp%3A%2F%2Fopen.demonii.com%3A1337","udp%3A%2F%2Ftracker.coppersurfer.tk%3A6969","udp%3A%2F%2Fexodus.desync.com%3A6969"],"infoHash":"dfeb7d7f292b6f9f9937364025857efa07f3824e","infoHashBuffer":{"type":"Buffer","data":[223,235,125,127,41,43,111,159,153,55,54,64,37,133,126,250,7,243,130,78]},"announce":[],"urlList":[]}}